<svg xmlns="http://www.w3.org/2000/svg" viewBox="0 0 100 100">
  <rect width="100" height="100" fill="#2563eb" rx="15"/>
  <rect x="15" y="15" width="25" height="25" fill="white" rx="3"/>
  <rect x="60" y="15" width="25" height="25" fill="white" rx="3"/>
  <rect x="15" y="60" width="25" height="25" fill="white" rx="3"/>
  <rect x="20" y="20" width="15" height="15" fill="#2563eb" rx="2"/>
  <rect x="65" y="20" width="15" height="15" fill="#2563eb" rx="2"/>
  <rect x="20" y="65" width="15" height="15" fill="#2563eb" rx="2"/>
  <rect x="50" y="50" width="8" height="8" fill="white" rx="1"/>
  <rect x="62" y="50" width="8" height="8" fill="white" rx="1"/>
  <rect x="74" y="50" width="8" height="8" fill="white" rx="1"/>
  <rect x="50" y="62" width="8" height="8" fill="white" rx="1"/>
  <rect x="62" y="62" width="8" height="8" fill="white" rx="1"/>
  <rect x="74" y="62" width="8" height="8" fill="white" rx="1"/>
  <rect x="50" y="74" width="8" height="8" fill="white" rx="1"/>
  <rect x="62" y="74" width="8" height="8" fill="white" rx="1"/>
  <rect x="74" y="74" width="8" height="8" fill="white" rx="1"/>
</svg>
